<svg width="130" height="66" viewBox="0 0 130 66" fill="none" xmlns="http://www.w3.org/2000/svg">
<path d="M0.186096 64.6008V60.6934H2.72903V60.9415H0.496211V62.43H1.48858C1.98476 62.43 2.3569 62.492 2.60499 62.6781C2.85308 62.8642 3.03915 63.1123 3.03915 63.4844C3.03915 63.8565 2.9151 64.1667 2.66701 64.3527C2.41892 64.5388 2.04678 64.6629 1.5506 64.6629H0.186096V64.6008ZM0.496211 64.3527H1.42655C2.29487 64.3527 2.72903 64.0426 2.72903 63.4224C2.72903 63.1123 2.60499 62.9262 2.41892 62.8022C2.17083 62.6781 1.86071 62.6161 1.42655 62.6161H0.558233V64.3527H0.496211ZM6.32636 64.6008V60.6934H7.44278C7.93896 60.6934 8.37312 60.7554 8.62121 60.9415C8.8693 61.1275 9.05537 61.3756 9.05537 61.8098C9.05537 62.1819 8.93132 62.492 8.62121 62.6781C8.37312 62.8642 7.93896 62.9882 7.44278 62.9882H6.63648V64.6629H6.32636V64.6008ZM6.63648 62.6781H7.38075C7.81491 62.6781 8.18705 62.6161 8.37312 62.43C8.55919 62.306 8.68324 62.0579 8.68324 61.7478C8.68324 61.4377 8.55919 61.1896 8.37312 61.0655C8.18705 60.9415 7.81491 60.8795 7.31873 60.8795H6.57446V62.6781H6.63648ZM12.3426 64.6008V60.6934H14.7615V60.9415H12.6527V62.43H14.3893V62.6781H12.6527V64.4148H14.8235V64.6629H12.3426V64.6008ZM18.1727 64.6008V60.6934H18.4829V62.43H20.8397V60.6934H21.1498V64.6008H20.8397V62.6161H18.4829V64.6008H18.1727ZM27.9724 64.3527H28.0344V64.5388L27.9724 65.7172H27.7243V64.6008H27.5382H27.2281H24.6231V65.7172H24.375L24.313 64.5388V64.3527H24.4371H24.4991C24.7472 64.2907 24.9332 63.7945 25.1193 62.9262C25.2434 62.306 25.3674 61.5617 25.5535 60.6934H27.5382V64.4148H27.9724V64.3527ZM24.9332 64.3527H27.2281V60.8795H25.8016C25.7395 61.1275 25.6775 61.4377 25.6155 61.8718C25.5535 62.306 25.4914 62.6781 25.4294 62.9262C25.3054 63.6705 25.1193 64.1667 24.9332 64.3527ZM31.1975 64.6008V60.6934H31.5077V63.1123C31.5077 63.3604 31.5077 63.7325 31.4456 64.2287L31.9418 63.4224L33.8025 60.6314H34.1126V64.5388H33.8025V62.1199C33.8025 61.9959 33.8025 61.8718 33.8025 61.7478C33.8025 61.6237 33.8025 61.4997 33.8025 61.3136C33.8025 61.1896 33.8025 61.0655 33.8025 60.9415L33.3063 61.6858L31.4456 64.4768H31.1975V64.6008ZM37.896 64.6008V60.6934H38.2061V62.43H40.563V60.6934H40.8731V64.6008H40.563V62.6161H38.2061V64.6008H37.896ZM44.4704 64.6008V60.6934H46.8273V60.9415H44.7806V64.6629H44.4704V64.6008ZM52.5334 64.1046C52.2233 64.4768 51.7892 64.6629 51.2309 64.6629C50.6727 64.6629 50.2386 64.4768 49.9285 64.1046C49.6184 63.7325 49.4323 63.2363 49.4323 62.6161C49.4323 61.9959 49.6184 61.4997 49.9285 61.1275C50.2386 60.7554 50.6727 60.5693 51.2309 60.5693C51.7892 60.5693 52.2233 60.7554 52.5334 61.1275C52.8435 61.4997 53.0296 61.9959 53.0296 62.6161C53.0296 63.2363 52.8435 63.7325 52.5334 64.1046ZM50.1766 63.9186C50.4247 64.2287 50.7968 64.4148 51.2309 64.4148C51.6651 64.4148 52.0372 64.2287 52.2853 63.9186C52.5334 63.6085 52.7195 63.1743 52.7195 62.6161C52.7195 62.0579 52.5955 61.6237 52.2853 61.3136C52.0372 61.0035 51.6651 60.8174 51.2309 60.8174C50.7968 60.8174 50.4247 61.0035 50.1766 61.3136C49.9285 61.6237 49.7424 62.0579 49.7424 62.6161C49.7424 63.1743 49.8664 63.6085 50.1766 63.9186ZM56.4409 64.6008V60.6934H57.6193C58.0535 60.6934 58.4256 60.7554 58.6737 60.9415C58.9218 61.1275 59.0458 61.3136 59.0458 61.6858C59.0458 61.8718 58.9838 62.0579 58.8598 62.244C58.7357 62.43 58.5497 62.492 58.3636 62.5541C58.6737 62.6161 58.8598 62.6781 59.0458 62.8642C59.2319 63.0503 59.2939 63.2363 59.2939 63.4844C59.2939 63.8565 59.1699 64.1667 58.8598 64.3527C58.5497 64.5388 58.1775 64.6629 57.6813 64.6629H56.4409V64.6008ZM56.751 62.368H57.4953C58.3636 62.368 58.7357 62.1199 58.7357 61.6237C58.7357 61.3756 58.6117 61.1896 58.4256 61.0655C58.2395 60.9415 57.9294 60.8795 57.4953 60.8795H56.689V62.368H56.751ZM56.751 64.3527H57.6193C58.0535 64.3527 58.4256 64.2907 58.6737 64.1046C58.9218 63.9186 59.0458 63.7325 59.0458 63.4224C59.0458 62.8642 58.5497 62.6161 57.6193 62.6161H56.751V64.3527ZM65.4342 64.1046C65.1241 64.4768 64.6899 64.6629 64.1317 64.6629C63.5735 64.6629 63.1393 64.4768 62.8292 64.1046C62.5191 63.7325 62.333 63.2363 62.333 62.6161C62.333 61.9959 62.5191 61.4997 62.8292 61.1275C63.1393 60.7554 63.5735 60.5693 64.1317 60.5693C64.6899 60.5693 65.1241 60.7554 65.4342 61.1275C65.7443 61.4997 65.9304 61.9959 65.9304 62.6161C65.9304 63.2363 65.8063 63.7325 65.4342 64.1046ZM63.0773 63.9186C63.3254 64.2287 63.6976 64.4148 64.1317 64.4148C64.5659 64.4148 64.938 64.2287 65.1861 63.9186C65.4342 63.6085 65.6203 63.1743 65.6203 62.6161C65.6203 62.0579 65.4962 61.6237 65.1861 61.3136C64.938 61.0035 64.5659 60.8174 64.1317 60.8174C63.6976 60.8174 63.3254 61.0035 63.0773 61.3136C62.8292 61.6237 62.6432 62.0579 62.6432 62.6161C62.7052 63.1743 62.8292 63.6085 63.0773 63.9186ZM69.3416 64.6008V60.6934H71.7605V60.9415H69.6517V62.43H71.3884V62.6781H69.6517V64.4148H71.8226V64.6629H69.3416V64.6008ZM81.3121 64.6008L80.8159 63.2363H79.0792L78.5831 64.6008H78.2729L79.8235 60.6934H80.1336L81.6842 64.6008H81.3121ZM79.2033 62.9882H80.7539L80.5058 62.244C80.3197 61.6857 80.1336 61.2516 80.0096 60.8795C79.8855 61.2516 79.6995 61.6857 79.5134 62.244L79.2033 62.9882ZM84.7233 64.6008V60.6934H87.0802V60.9415H85.0334V64.6629H84.7233V64.6008ZM90.3054 64.6008V60.6934H92.7243V60.9415H90.6155V62.43H92.3521V62.6781H90.6155V64.4148H92.7863V64.6629H90.3054V64.6008ZM96.1355 64.6008V60.6934H96.4456V62.43H98.8025V60.6934H99.1126V64.6008H98.8025V62.6161H96.4456V64.6008H96.1355ZM103.702 64.6008V60.8795H102.338V60.6314H105.439V60.8795H104.074V64.6008H103.702ZM110.153 64.6629C109.595 64.6629 109.16 64.4768 108.85 64.1046C108.54 63.7325 108.354 63.2363 108.354 62.6161C108.354 61.9959 108.54 61.4997 108.85 61.1275C109.16 60.7554 109.657 60.5693 110.215 60.5693C110.649 60.5693 111.083 60.7554 111.331 61.0655L111.145 61.2516C110.897 61.0035 110.587 60.8174 110.215 60.8174C109.719 60.8174 109.346 61.0035 109.098 61.3136C108.85 61.6237 108.664 62.0579 108.664 62.6161C108.664 63.1743 108.788 63.6085 109.098 63.9186C109.346 64.2287 109.719 64.4148 110.215 64.4148C110.649 64.4148 111.021 64.2287 111.331 63.9186L111.517 64.1046C111.083 64.4768 110.649 64.6629 110.153 64.6629ZM115.549 64.6008V60.8795H114.184V60.6314H117.285V60.8795H115.921V64.6008H115.549ZM120.449 64.6008V60.6934H121.627C122.061 60.6934 122.433 60.7554 122.681 60.9415C122.929 61.1275 123.053 61.3136 123.053 61.6858C123.053 61.8718 122.991 62.0579 122.867 62.244C122.743 62.43 122.557 62.492 122.371 62.5541C122.681 62.6161 122.867 62.6781 123.053 62.8642C123.24 63.0503 123.302 63.2363 123.302 63.4844C123.302 63.8565 123.178 64.1667 122.867 64.3527C122.557 64.5388 122.185 64.6629 121.689 64.6629H120.449V64.6008ZM120.759 62.368H121.503C122.371 62.368 122.743 62.1199 122.743 61.6237C122.743 61.3756 122.619 61.1896 122.433 61.0655C122.247 60.9415 121.937 60.8795 121.503 60.8795H120.697V62.368H120.759ZM120.759 64.3527H121.627C122.061 64.3527 122.433 64.2907 122.681 64.1046C122.929 63.9186 123.053 63.7325 123.053 63.4224C123.053 62.8642 122.557 62.6161 121.627 62.6161H120.759V64.3527ZM129.504 64.1046C129.194 64.4768 128.76 64.6629 128.201 64.6629C127.643 64.6629 127.209 64.4768 126.899 64.1046C126.589 63.7325 126.403 63.2363 126.403 62.6161C126.403 61.9959 126.589 61.4997 126.899 61.1275C127.209 60.7554 127.643 60.5693 128.201 60.5693C128.76 60.5693 129.194 60.7554 129.504 61.1275C129.814 61.4997 130 61.9959 130 62.6161C130 63.2363 129.814 63.7325 129.504 64.1046ZM127.085 63.9186C127.333 64.2287 127.705 64.4148 128.139 64.4148C128.574 64.4148 128.946 64.2287 129.194 63.9186C129.442 63.6085 129.628 63.1743 129.628 62.6161C129.628 62.0579 129.504 61.6237 129.194 61.3136C128.946 61.0035 128.574 60.8174 128.139 60.8174C127.705 60.8174 127.333 61.0035 127.085 61.3136C126.837 61.6237 126.651 62.0579 126.651 62.6161C126.713 63.1743 126.837 63.6085 127.085 63.9186Z" fill="#1A1617"/>
<path d="M38.3301 27.1389C38.3301 34.4576 38.3301 49.6532 38.3301 50.0253H35.6632C35.6632 50.0253 35.7252 35.512 35.6632 28.5034C35.6632 26.5186 34.8569 24.0998 33.3683 22.4872C30.9494 19.8822 24.8092 19.5721 22.3903 23.2934C21.2739 25.0301 20.4055 26.8908 20.4055 28.9375C20.3435 35.512 20.3435 50.0873 20.3435 50.0873H17.6765C17.6765 50.0873 17.6765 35.512 17.6765 28.8755C17.6765 27.3249 17.2424 25.7123 16.6842 24.2858C15.7538 21.9289 13.8311 20.6885 11.3502 20.5644C5.89217 20.2543 2.72901 23.5415 2.66698 29.4337C2.60496 35.8841 2.66698 49.5912 2.66698 50.0873H0C0 49.7772 0 28.6894 0 19.1999C0 18.4557 0.620227 17.8354 1.3645 17.8354C2.10878 17.8354 2.72901 18.4557 2.72901 19.1999V22.5492C4.89981 18.9518 7.87691 17.5253 11.5983 17.6494C15.3197 17.7734 18.2968 19.386 19.8473 23.0454C21.3979 20.5644 23.3826 18.6417 26.2357 18.0215C32.5 16.4709 38.3301 19.6341 38.3301 27.1389ZM45.959 17.0912C46.7032 17.0912 47.2614 16.4709 47.2614 15.7887V12.8116C47.2614 12.0673 46.6412 11.5091 45.959 11.5091C45.2767 11.5091 44.6565 12.1293 44.6565 12.8116V15.7887C44.5945 16.4709 45.2147 17.0912 45.959 17.0912ZM92.4761 45.9318C93.2204 45.9318 93.7786 45.3116 93.7786 44.6293V41.6522C93.7786 40.908 93.1584 40.3497 92.4761 40.3497C91.7319 40.3497 91.1737 40.97 91.1737 41.6522V44.6293C91.1737 45.3116 91.7319 45.9318 92.4761 45.9318ZM50.6727 18.0215C47.0134 18.0215 44.5324 20.5024 44.5324 24.1618C44.5324 30.7362 44.5324 37.2486 44.5324 43.823C44.5324 47.7925 46.8273 50.1494 50.7347 50.1494C54.6422 50.2734 63.5114 50.1494 63.5114 50.1494C63.5114 49.281 63.5114 48.4127 63.5114 47.6064C63.0153 47.6064 54.7662 47.6064 51.0448 47.6064C48.4399 47.6064 47.4475 46.552 47.4475 43.9471C47.4475 41.2181 47.4475 38.4891 47.4475 35.7601C47.4475 35.3879 47.5095 35.0158 47.5095 34.5816C52.4714 34.5816 57.3092 34.5816 62.271 34.5816C62.271 33.7133 62.271 32.969 62.271 32.1007C57.3092 32.1007 52.4093 32.1007 47.4475 32.1007C47.4475 29.2477 47.4475 26.5186 47.4475 23.7896C47.4475 21.8669 48.5639 20.7505 50.4866 20.7505C54.3941 20.7505 63.5114 20.7505 63.5114 20.7505V18.0835C63.5114 18.0215 54.5801 17.9595 50.6727 18.0215ZM73.3731 44.9394C73.249 44.0091 73.125 43.0788 73.125 42.1484C73.125 34.2095 73.125 11.199 73.125 1.70948C73.125 0.903185 72.5048 0.282959 71.6985 0.282959C70.8922 0.282959 70.2719 0.903185 70.2719 1.70948C70.2719 11.0749 70.2719 33.8994 70.2719 41.7143C70.2719 42.9547 70.334 44.1952 70.458 45.4356C70.6441 47.9786 71.9466 49.6532 74.5515 50.1494C75.6679 50.3975 76.9084 50.3354 78.1488 50.3975V47.7305C78.1488 47.7305 76.9704 47.7305 76.3502 47.7305C74.6135 47.6684 73.6832 46.6141 73.3731 44.9394ZM102.772 41.2181C102.09 46.6761 98.5544 50.5835 92.3521 50.5215C86.2118 50.5835 82.6765 46.6761 81.9323 41.2181C81.25 36.0081 81.1259 30.7362 82.1183 25.5263C82.8626 21.3707 85.2815 18.7658 89.375 17.7734C89.6231 17.7114 89.9952 17.5873 91.0496 17.5253C91.0496 16.595 91.0496 14.1761 91.0496 12.7496C91.0496 12.3774 91.1737 12.0673 91.4217 11.8192C91.6698 11.5711 91.9799 11.4471 92.3521 11.4471C92.7242 11.4471 93.0343 11.5711 93.2824 11.8192C93.5305 12.0673 93.6546 12.3774 93.6546 12.7496C93.6546 14.2381 93.6546 16.595 93.6546 17.5253C94.6469 17.5873 95.0811 17.7114 95.3292 17.7734C99.3607 18.7038 101.78 21.3087 102.586 25.5263C103.578 30.7362 103.454 36.0081 102.772 41.2181ZM100.167 29.0616C100.105 27.9452 99.9809 26.8908 99.7328 25.8364C98.8645 22.3011 96.0735 20.1923 92.3521 20.1923C88.6307 20.1923 85.8397 22.3011 84.9714 25.8364C84.7233 26.8908 84.5992 28.0072 84.5372 29.0616C84.3511 33.2791 84.041 37.4347 84.9093 41.5902C85.7156 45.7457 88.4446 47.9786 92.3521 47.9786C96.2595 47.9786 98.9265 45.6837 99.7948 41.5902C100.663 37.4347 100.415 33.2171 100.167 29.0616ZM129.628 29.3717C129.628 27.9452 129.628 26.5807 129.442 25.2162C128.884 21.6809 127.085 19.0759 123.55 18.0215C119.518 16.781 114.556 17.5873 111.703 21.8049C111.641 21.8669 111.455 22.177 111.455 22.2391V19.262C111.455 18.4557 110.835 17.8354 110.029 17.8354C109.222 17.8354 108.602 18.4557 108.602 19.262V50.0253H111.269C111.269 50.0253 111.269 35.512 111.269 28.6274C111.269 25.0921 114.618 20.6885 119.27 20.4404C122.619 20.2543 125.658 21.6188 126.589 25.3402C126.899 26.3946 126.899 27.573 126.899 28.6894C126.899 35.3879 126.899 50.0873 126.899 50.0873H129.566C129.69 50.0253 129.69 35.8221 129.628 29.3717Z" fill="#1A1617"/>
</svg>
